<svg width="177" height="63" viewBox="0 0 177 63" fill="none" xmlns="http://www.w3.org/2000/svg"><path d="M76.526 15.592h6.653V42.2h6.652V8.939h-6.652c-3.66 0-6.653 2.994-6.653 6.653zM96.482 42.2h6.653V28.897c0-3.658-2.994-6.652-6.653-6.652v19.957zm13.305-19.956v19.957h6.652V28.896h6.653v6.653c0 3.658 2.993 6.652 6.652 6.652V28.896c0-3.658-2.994-6.652-6.652-6.652h-13.305zm59.872 0h-6.653v-6.652c0-3.659-2.993-6.653-6.652-6.653v26.61H143.05v-6.653h6.652v-6.652h-6.652c-3.659 0-6.653 2.994-6.653 6.652v6.652c0 3.66 2.994 6.653 6.653 6.653h19.956V28.896h6.653v6.652c0 3.66 2.993 6.653 6.652 6.653V28.896c0-3.659-2.994-6.652-6.652-6.652zm-73.177-6.652h6.653c0-3.659-2.994-6.653-6.653-6.653v6.653zM85.936 53.436h-2.757v-4.514h2.69v.741h-1.873v1.123h1.674v.741h-1.674v1.168h1.94v.741zm12.084-4.514h.957l-1.568 2.212 1.628 2.302h-.957l-1.202-1.696-1.196 1.696h-.956l1.627-2.302-1.554-2.212h.956l1.143 1.632 1.123-1.632zm13.013 3.485l.312.594c-.146.15-.356.273-.631.367-.27.095-.556.142-.857.142-.709 0-1.286-.213-1.734-.638-.443-.426-.664-.99-.664-1.69 0-.67.21-1.228.631-1.67.416-.44.999-.659 1.747-.659.594 0 1.065.153 1.415.458l-.365.587a1.903 1.903 0 00-1.05-.303c-.443 0-.806.144-1.089.432-.284.288-.425.673-.425 1.155 0 .473.148.855.445 1.148.301.292.688.438 1.162.438.408 0 .775-.12 1.103-.36zm13.182 1.029h-.81v-1.928h-2.126v1.928h-.817v-4.514h.817v1.844h2.126v-1.844h.81v4.514zm9.816.004h-.824l1.966-4.528h.718l1.966 4.528h-.87l-.485-1.155h-1.986l-.485 1.155zm2.159-1.896l-.678-1.606-.684 1.606h1.362zm14.64-2.622v4.514h-.651l-2.558-3.127v3.127h-.764v-4.514h.652l2.557 3.14v-3.14h.764zm12.647 2.828h-1.122v-.742h1.887v1.87a2.147 2.147 0 01-.796.465 2.97 2.97 0 01-.945.167c-.752 0-1.345-.21-1.78-.632-.43-.417-.645-.982-.645-1.696 0-.662.213-1.215.639-1.658.424-.447.984-.67 1.679-.67.594 0 1.093.152 1.496.457l-.346.633a1.185 1.185 0 00-.458-.252 1.832 1.832 0 00-.592-.097c-.464 0-.838.142-1.122.426-.288.28-.431.666-.431 1.16 0 .478.143.863.431 1.155.284.288.665.432 1.142.432.168 0 .351-.03.546-.09.194-.064.334-.137.417-.22v-.709zm12.833 1.686h-2.757v-4.514h2.691v.741h-1.873v1.123h1.673v.741h-1.673v1.168h1.939v.741zM29.593 11.816c1.255-1.473.764-3.656.764-3.656L26.7 13.563c-.055 0 1.31.054 2.892-1.747zM17.315 41.339l.437-2.183s-1.801 3.165-1.965 3.602c-.163.491.11 1.364.819 1.31.71-.055 1.582-1.092 1.582-1.856 0-.982-.873-.873-.873-.873z" fill="#fff"/><path d="M49.73 6.632s2.729.11 5.566.437C48.912 2.049 42.854.575 37.943.575c-6.766 0-11.35 2.783-11.623 2.947L28.448.139S19.935-.68 16.934 8.324C16.17 6.414 15.46 3.63 15.46 3.63s-4.42 3.874-2.346 10.314C8.04 12.089.781 9.525.51 9.47c-.382-.055-.492.11-.492.11s-.109.163.219.436c.6.49 12.06 8.95 14.57 10.586-.546 1.965-.546 2.892 0 3.82.764 1.255.818 1.91.71 2.838-.11.927-1.092 8.949-1.31 9.931-.219.982-2.51 4.475-2.401 5.512.109 1.036 1.527 5.456 2.782 5.948.928.327 3.22 1.036 4.748 1.036.546 0 1.037-.109 1.255-.327.928-.819 1.2-.982 1.855-.982h.164c.273 0 .6.054.982.054.873 0 2.02-.163 2.838-.927 1.2-1.2 3.274-2.838 3.929-3.602.819-1.037 1.255-2.456 1.037-3.874-.164-1.31.546-2.456 1.364-3.602 1.037-1.364 2.947-3.82 2.947-3.82 3.765 2.838 6.111 7.149 6.111 11.95 0 8.514-7.42 15.39-16.588 15.39-1.42 0-2.784-.164-4.148-.492 4.202 1.474 7.75 1.965 10.641 1.965 6.167 0 9.44-2.237 9.44-2.237s-1.145 1.473-3 3.165h.054c10.204-1.42 15.17-9.823 15.17-9.823s-.382 2.729-.873 4.584c13.588-10.205 11.296-22.974 11.241-23.41.11.163 1.474 1.8 2.183 2.674C68.12 13.89 49.73 6.633 49.73 6.633zM28.83 42.54c-.218.273-1.146 1.091-1.8 1.691-.656.6-1.365 1.201-1.91 1.747-.219.218-.655.327-1.31.327h-1.638c.82-1.091 3.22-3.601 4.039-4.147.982-.655 1.473-1.31.873-2.456-.6-1.146-2.183-.873-2.183-.873s.928-.382 1.746-.382c-1.037-.273-2.346 0-2.946.6-.655.6-.546 2.729-.819 4.093-.273 1.419-1.2 2.128-2.62 3.438-.763.71-1.309.928-1.746.928-.927-.164-2.019-.437-2.782-.71-.546-.709-1.365-3.056-1.583-4.038.164-.545.818-1.691 1.146-2.346.655-1.255 1.037-1.965 1.146-2.62.218-.927.928-6.657 1.2-9.058.71.928 1.692 2.456 1.474 3.438 1.582-2.238.436-4.42-.11-5.293-.49-.873-1.145-2.62-.6-4.475.546-1.855 2.51-6.985 2.51-6.985s.655 1.146 1.583.928c.928-.219 8.404-11.46 8.404-11.46s2.019 4.42-.11 7.64c-2.182 3.22-4.31 3.82-4.31 3.82s3 .545 5.784-1.474c1.146 2.674 2.237 5.457 2.292 5.84-.164.381-2.347 5.62-2.565 5.947-.109.11-.873.328-1.419.437-.927.273-1.473.436-1.691.6-.382.327-2.129 5.13-2.947 7.476-.982.273-1.965.819-2.674 1.91.382-.273 1.583-.437 2.456-.546.764-.054 3.11 1.2 3.71 3.547v.11c.11.873-.163 1.691-.6 2.346zm-5.13.655c.492-.71.437-1.91.492-2.292.054-.382.163-1.092.6-1.2.437-.11 1.473.054 1.473.818 0 .71-.764.873-1.31 1.364-.381.382-1.145 1.2-1.254 1.31zM45.475 32.77c.545-2.783.6-5.184.436-7.149 2.129 2.838 3.438 6.276 3.82 9.823.055.436.491.873.928 1.31.382.327.818.764.818 1.036 0 1.256-.109 2.51-.327 3.766-.055.163-.546.436-.928.654-.546.273-1.037.546-1.146.983a20.32 20.32 0 01-7.203 10.532c5.075-5.294 7.53-14.025 3.602-20.955zm-3.438 21.446c3.547-2.729 6.275-6.549 7.476-10.86.054-.163.545-.436.873-.654.546-.273 1.091-.6 1.2-1.037a22.74 22.74 0 00.328-3.875c0-.49-.491-.982-.982-1.473-.273-.327-.71-.71-.71-.982-.436-3.984-2.019-7.75-4.474-10.86-1.092-6.548-5.457-8.567-5.566-8.621.109.163 2.946 4.256.982 9.058-2.02 4.857-7.203 4.093-7.64 4.147-.437 0-2.128 2.183-4.256 6.221-.273-.109-1.42-.382-2.729-.163.982-2.729 2.456-6.604 2.729-6.93.109-.11.927-.328 1.473-.492 1.037-.273 1.528-.436 1.692-.655.109-.163.654-1.419 1.2-2.728.491 0 1.746-.11 1.855-.164.11-.11 1.146-2.783 1.146-3.11 0-.273-2.128-5.566-2.946-7.586.382-.436.764-.982 1.146-1.582 11.186 1.2 19.917 10.696 19.917 22.21 0 8.84-5.184 16.534-12.714 20.136z" fill="#fff"/><path d="M27.52 24.75c1.037-1.2.491-3.438-1.419-3.82.492-1.146 1.2-3.438 1.2-3.438s-5.565 8.731-6.056 8.895c-.492.164-.983-1.746-.983-1.746-1.036 3.983 1.747 4.53 2.074 3.274 1.528-.382 4.147-2.02 5.184-3.165z" fill="#fff"/></svg>