<svg width="152" height="42" viewBox="0 0 152 42" fill="none" xmlns="http://www.w3.org/2000/svg"><path d="M93.175 39.26L78.54 3.74a3.122 3.122 0 01-.181-1.007A2.785 2.785 0 0179.073.76a2.52 2.52 0 011.945-.756 2.63 2.63 0 011.51.504 3.2 3.2 0 011.036 1.33l13.92 34.75 13.92-34.75a3.2 3.2 0 011.049-1.33 2.63 2.63 0 011.511-.504 2.52 2.52 0 011.931.756c.491.537.752 1.245.727 1.973a3.12 3.12 0 01-.182 1.008l-14.633 35.52a3.937 3.937 0 01-3.666 2.728h-1.3a3.93 3.93 0 01-3.666-2.729zm29.674 1.64a2.607 2.607 0 01-.755-1.903V3.03a2.735 2.735 0 01.755-1.96 2.508 2.508 0 011.903-.783h23.783a2.359 2.359 0 011.79.755 2.42 2.42 0 01.756 1.792 2.284 2.284 0 01-.756 1.763 2.51 2.51 0 01-1.804.728h-21.027v13.1h18.914a2.365 2.365 0 011.791.755 2.484 2.484 0 01.755 1.791 2.284 2.284 0 01-.755 1.764 2.524 2.524 0 01-1.791.727h-18.914v13.156h21.027a2.362 2.362 0 011.804.755 2.418 2.418 0 01.756 1.806 2.284 2.284 0 01-.756 1.763 2.516 2.516 0 01-1.804.714h-23.769a2.348 2.348 0 01-1.903-.756zm-40.992-2.648L67.209 2.733a3.933 3.933 0 00-3.651-2.73h-1.287a3.93 3.93 0 00-3.666 2.73L52.24 18.212h-4.826a2.644 2.644 0 00-2.617 2.63v.029a2.645 2.645 0 002.617 2.63h2.588L43.93 38.253a3.123 3.123 0 00-.182 1.008 2.786 2.786 0 00.714 1.974 2.52 2.52 0 001.944.755 2.63 2.63 0 001.511-.504 3.205 3.205 0 001.035-1.33l6.702-16.653h4.602a2.643 2.643 0 002.617-2.631v-.07a2.646 2.646 0 00-2.617-2.631h-2.49l5.148-12.764 13.92 34.75c.22.528.578.986 1.036 1.33.44.32.967.495 1.51.503a2.516 2.516 0 001.96-.755c.48-.542.731-1.25.699-1.974a2.38 2.38 0 00-.168-1.008h-.014zm-43.732 0L23.49 2.733a3.933 3.933 0 00-3.68-2.73h-1.286a3.93 3.93 0 00-3.665 2.73L8.494 18.212H3.668a2.644 2.644 0 00-2.617 2.63v.029a2.645 2.645 0 002.617 2.63h2.588L.184 38.253a3.122 3.122 0 00-.182 1.008 2.786 2.786 0 00.714 1.974 2.52 2.52 0 001.944.755 2.63 2.63 0 001.511-.504 3.205 3.205 0 001.035-1.33l6.702-16.653h4.63a2.644 2.644 0 002.63-2.631v-.07a2.646 2.646 0 00-2.63-2.631h-2.476l5.106-12.764 13.92 34.75c.22.528.578.986 1.036 1.33.44.32.967.495 1.51.503a2.516 2.516 0 001.96-.755c.48-.542.73-1.25.699-1.974a2.38 2.38 0 00-.168-1.008z" fill="#fff"/></svg>