<svg width="213" height="42" viewBox="0 0 213 42" fill="none" xmlns="http://www.w3.org/2000/svg"><path d="M9.655 21.021l-4.828 4.677L0 21.02l4.827-4.676 4.828 4.677zM21.378 9.665l8.276 8.016 4.827-4.676L21.378.312 8.275 13.005l4.828 4.676 8.275-8.016zm16.551 6.68l-4.827 4.677 4.827 4.676 4.827-4.677-4.827-4.676zm-16.55 16.033l-8.276-8.016-4.828 4.676L21.378 41.73l13.103-12.692-4.828-4.676-8.275 8.016zm0-6.68l4.826-4.677-4.827-4.676-4.827 4.677 4.827 4.676zm50.962.45v-.065c0-3.05-1.675-4.575-4.388-5.58 1.675-.91 3.082-2.337 3.082-4.9v-.065c0-3.57-2.948-5.873-7.738-5.873H52.411v22.713h11.154c5.293 0 8.776-2.077 8.776-6.23zm-6.432-9.702c0 1.688-1.44 2.401-3.718 2.401h-4.756v-4.802h5.091c2.178 0 3.383.844 3.383 2.337v.064zm1.307 9.085c0 1.688-1.373 2.467-3.651 2.467h-6.13V23h5.962c2.646 0 3.819.94 3.819 2.465v.065zm15.942 6.847V9.665H78v22.713h5.158zm27.729 0V9.665h-5.092V23.65L94.808 9.665h-4.756v22.713h5.091v-14.44l11.356 14.44h4.388zm28.573 0L129.412 9.503h-4.757l-10.049 22.875h5.259l2.144-5.094h9.914l2.145 5.094h5.392zm-9.378-9.507h-6.231l3.114-7.366 3.117 7.366zm33.966 9.507V9.665h-5.092V23.65L147.97 9.665h-4.756v22.713h5.091v-14.44l11.355 14.44h4.388zm26.63-3.667l-3.283-3.212c-1.841 1.623-3.483 2.66-6.163 2.66-4.019 0-6.799-3.244-6.799-7.138v-.064c0-3.894 2.847-7.074 6.799-7.074 2.346 0 4.186.973 5.996 2.563l3.283-3.666c-2.178-2.077-4.823-3.505-9.245-3.505-7.202 0-12.226 5.29-12.226 11.746v.065c0 6.522 5.126 11.681 12.025 11.681 4.522 0 7.202-1.557 9.613-4.056zm22.009 3.667v-4.445h-12.728v-4.77h11.053v-4.445h-11.053V14.11h12.56V9.665h-17.685v22.713h17.853z" fill="#fff"/></svg>