<svg width="199" height="42" viewBox="0 0 199 42" fill="none" xmlns="http://www.w3.org/2000/svg"><path fill-rule="evenodd" clip-rule="evenodd" d="M57.539 23.094c0 4.598 2.15 8.514 7.259 8.514 3.998 0 6.637-2.5 6.654-5.632h1.344v.05c0 3.682-3.143 6.815-7.998 6.815-6.067 0-8.638-4.382-8.638-9.897v-3.849c0-5.498 2.689-9.947 8.57-9.947 5.092 0 7.915 3.582 7.915 6.914v.05H71.3c-.034-2.698-2.386-5.715-6.57-5.715-4.956 0-7.191 3.9-7.191 8.547v4.15zm21.37-.233v2.166c0 4.299 2.403 6.58 5.747 6.58 3.293 0 5.73-2.232 5.73-6.58V22.86c0-4.298-2.436-6.631-5.747-6.631-3.31 0-5.73 2.3-5.73 6.631zm12.838-.133v2.448c0 4.882-2.99 7.665-7.108 7.665-4.116 0-7.074-2.783-7.074-7.665v-2.448c0-4.916 2.924-7.715 7.074-7.715 4.083 0 7.108 2.866 7.108 7.715zm5.727 10.113h1.344V15.596h-1.344V32.84zm.672-22.976a1.2 1.2 0 011.21 1.2c0 .665-.538 1.183-1.21 1.183a1.172 1.172 0 01-1.193-1.184c0-.666.522-1.2 1.194-1.2h-.001zm7.207 5.73h1.344v3.201h.069c.57-1.634 2.351-3.483 5.594-3.483 3.496 0 6.05 2.216 6.05 6.248v11.28h-1.362V21.727c0-3-1.781-5.164-4.889-5.164-3.647 0-5.462 2.832-5.462 5.764v10.514h-1.344V15.596zm20.077 10.731c.219 2.25 2.117 4.25 5.899 4.25 3.326 0 5.51-1.634 5.51-4.25 0-2.049-1.277-3.165-3.981-3.865l-3.967-1.05c-2.722-.716-5.292-2.415-5.292-5.881 0-4.166 3.73-6.448 7.779-6.448 3.848 0 7.68 2.016 7.762 6.33h-2.519c-.201-2.232-1.899-4.065-5.294-4.065-3.007 0-5.175 1.45-5.175 4.016 0 1.783 1.094 3.016 3.395 3.616l3.882 1.049c3.612.967 5.982 2.549 5.982 6.132 0 4.398-3.746 6.68-8.401 6.68-5.95 0-8.033-3.648-8.117-6.514h2.538-.001zm19.935-15.478h2.47v4.382h3.596v2.082h-3.596V28.06c0 2.15.705 2.683 2.941 2.683.303 0 .553 0 .805-.034v2.016a8.55 8.55 0 01-1.426.117c-4.017 0-4.79-1.565-4.79-4.932V10.848zm21.858 15.894v-2.149h-4.706c-2.57 0-3.662 1.216-3.662 2.917 0 2.165 1.798 3.215 3.781 3.215 2.62 0 4.587-1.633 4.587-3.983zm-5.176 6.099c-3.41 0-5.747-2.083-5.747-5.282 0-3.016 2.117-4.948 6.135-4.966h4.788v-1.882c0-2.449-1.445-3.766-3.95-3.766-2.419 0-3.746 1.184-3.948 3.033h-2.335c.202-3.033 2.302-5.149 6.386-5.149 3.66 0 6.316 2.017 6.316 5.598v12.13h-2.402v-2.266h-.067c-.84 1.4-2.488 2.55-5.176 2.55zm13.013-21.993h2.47v4.382h3.596v2.082h-3.596V28.06c0 2.15.705 2.683 2.941 2.683.301 0 .555 0 .807-.034v2.016c-.252.05-.84.117-1.43.117-4.015 0-4.788-1.565-4.788-4.932V10.848zm16.906 3.981c4.151 0 6.134 2.417 6.134 5.149h-2.337c-.084-1.367-.974-3.05-3.897-3.05-2.203 0-3.831.951-3.831 2.817 0 2.017 2.235 2.499 4.368 2.915 3.276.6 6.133 1.417 6.133 4.849 0 3.449-2.839 5.332-6.838 5.332-3.849 0-6.436-1.916-6.436-4.916h2.419c.235 1.6 1.646 2.816 4.218 2.816 2.806 0 4.183-1.3 4.183-2.95 0-2.065-1.915-2.465-4.502-2.998-3.311-.716-5.982-1.665-5.982-4.781 0-3.583 3.025-5.183 6.368-5.183zM9.876 30.835l-4.342 4.306C1.964 31.288 0 26.254 0 20.953c0-5.628 2.185-10.894 6.153-14.828A21.253 21.253 0 0114.73.96l1.341 5.973a15.09 15.09 0 00-5.592 3.503 14.746 14.746 0 00-4.384 10.198 14.744 14.744 0 003.78 10.202zm11.219-9.887L16.503.488A21.287 21.287 0 0126.93.833a21.482 21.482 0 019.17 5.374 20.781 20.781 0 015.433 9.32c.879 3.254.952 6.708.212 9.994l-20.652-4.573zm10.564 18.13c-4.916 2.813-10.606 3.57-16.025 2.131A21.294 21.294 0 016.8 36.395l4.342-4.305a15.028 15.028 0 009.951 3.737 14.962 14.962 0 0010.601-4.356 14.915 14.915 0 003.53-5.535l6.046 1.338c-1.583 4.972-4.993 9.16-9.611 11.804z" fill="#fff"/></svg>