<svg width="234" height="53" viewBox="0 0 234 53" fill="none" xmlns="http://www.w3.org/2000/svg"><path fill-rule="evenodd" clip-rule="evenodd" d="M228.344 29.708c0-3.035-1.788-5.32-4.61-5.32s-4.612 2.285-4.612 5.32c0 3.034 1.79 5.319 4.612 5.319 2.828.005 4.61-2.28 4.61-5.32zm-.139-7.356v-7.95c0-.524.352-.98.86-1.113l4.217-1.125v26.9h-4.679V36.78c-1.176 1.713-3.289 2.717-5.932 2.717-5.429 0-8.609-4.355-8.609-9.784 0-5.428 3.18-9.784 8.609-9.784 2.637-.006 4.571 1.137 5.534 2.423zm-28.787-2.002v2.285c.859-1.61 2.787-2.717 5.573-2.717 4.502 0 6.895 3 6.895 7.465v11.682h-5.071V27.96c0-2.181-.929-3.681-3.18-3.681-2.464 0-3.819 1.57-3.819 4.073v10.713h-5.072V20.35h4.674zm-16.532 19.147c-5.465 0-8.506-2.359-8.506-8.428V20.35h5.072v10.788c0 2.608 1.177 3.82 3.428 3.82 2.25 0 3.427-1.218 3.427-3.82V20.35h5.072v10.713c.012 6.075-3.029 8.434-8.493 8.434zm-25.251-9.79c0 3.358 2.071 5.32 4.749 5.32 2.677 0 4.749-1.968 4.749-5.32 0-3.351-2.072-5.319-4.749-5.319-2.672 0-4.749 1.962-4.749 5.32zm4.754 9.79c-6.001 0-9.826-4.465-9.826-9.784 0-5.319 3.82-9.784 9.826-9.784 6.002 0 9.827 4.465 9.827 9.784-.005 5.32-3.825 9.784-9.827 9.784zm-25.285-9.79c0 3.035 1.789 5.32 4.611 5.32 2.821 0 4.61-2.285 4.61-5.32 0-3.034-1.789-5.319-4.61-5.319-2.822 0-4.611 2.285-4.611 5.32zm.144 7.362v7.782c0 .525-.352.98-.859 1.113l-4.213 1.108V20.35h4.68v2.285c1.177-1.714 3.289-2.717 5.932-2.717 5.43 0 8.609 4.355 8.609 9.784 0 5.428-3.179 9.784-8.609 9.784-2.649.011-4.576-1.13-5.54-2.417zM117.11 28.42v10.644h-5.072V27.96c0-2.072-.75-3.681-3.001-3.681-2.36 0-3.646 1.535-3.646 4.038v10.754h-5.072V20.35h4.679v2.284c.86-1.61 2.718-2.717 5.395-2.717 2.539 0 4.357.998 5.43 2.642 1.645-1.823 3.538-2.642 6.215-2.642 4.501 0 6.786 3.11 6.786 7.465v11.682h-5.072V27.96c0-2.072-.75-3.681-3.001-3.681-2.395 0-3.641 1.535-3.641 4.142zm-33.716 1.287c0 3.357 2.072 5.319 4.75 5.319 2.677 0 4.748-1.968 4.748-5.32 0-3.351-2.071-5.319-4.749-5.319-2.677 0-4.749 1.962-4.749 5.32zm4.75 9.79c-6.002 0-9.828-4.466-9.828-9.785s3.82-9.784 9.827-9.784 9.827 4.465 9.827 9.784c0 5.32-3.826 9.784-9.827 9.784zM51.997 26.35c0-7.927 5.465-13.182 12.752-13.182 6.325 0 11.327 3.75 12.291 9.928h-5.574c-.75-3.178-3.324-4.967-6.717-4.967-4.645 0-7.253 3.213-7.253 8.215s2.608 8.215 7.253 8.215c3.393 0 5.967-1.788 6.717-4.967h5.574c-.964 6.179-5.966 9.928-12.29 9.928-7.288.012-12.753-5.238-12.753-13.17zM2.083 40.636A4.354 4.354 0 010 36.926v-8.44c0-.322.087-.634.248-.91a1.81 1.81 0 012.481-.652l19.054 11.105a3.628 3.628 0 011.8 3.132v8.746c0 .398-.11.796-.317 1.137a2.177 2.177 0 01-2.995.72L2.083 40.637zM30.484 24.61a3.628 3.628 0 011.8 3.133v17.745c0 .525-.282 1.01-.738 1.263L27.374 49.1a.847.847 0 01-.167.07v-9.854c0-1.275-.67-2.457-1.766-3.115L8.707 26.19V15.069c0-.323.087-.634.248-.911a1.81 1.81 0 012.482-.652L30.484 24.61zm8.339-13.107a3.624 3.624 0 011.806 3.138v25.92c0 .531-.295 1.021-.762 1.275l-3.953 2.135V25.925a3.63 3.63 0 00-1.76-3.11L17.051 12.56V2.007c0-.323.087-.634.243-.911a1.818 1.818 0 012.48-.658l19.049 11.065z" fill="#fff"/></svg>