<svg width="164" height="43" viewBox="0 0 164 43" fill="none" xmlns="http://www.w3.org/2000/svg"><path fill-rule="evenodd" clip-rule="evenodd" d="M24.466 42.537c7.154 0 12.953-5.713 12.953-12.76 0-3.27-1.247-6.25-3.298-8.508a12.608 12.608 0 003.298-8.508C37.419 5.713 31.619 0 24.466 0H0v8.507c7.154 0 12.953 5.714 12.953 12.762S7.153 34.029 0 34.029v8.508h24.466zm-3.31-25.522a21.022 21.022 0 00-3.884-8.508h7.194c2.385 0 4.318 1.905 4.318 4.254 0 2.35-1.933 4.254-4.318 4.254h-3.31zM17.272 34.03a21.021 21.021 0 003.884-8.508h3.31c2.385 0 4.318 1.905 4.318 4.254 0 2.35-1.933 4.254-4.318 4.254h-7.194zm56.516-20.35c0 1.799-.334 3.35-1 4.655-.668 1.305-1.547 2.378-2.64 3.219a11.003 11.003 0 01-3.697 1.856 14.984 14.984 0 01-4.176.594H54.62V3.473h7.424c1.45 0 2.88.169 4.292.507 1.411.338 2.668.9 3.77 1.682 1.102.783 1.991 1.832 2.668 3.147.677 1.314 1.015 2.938 1.015 4.872zm-5.162 0c0-1.16-.189-2.121-.566-2.885-.377-.764-.88-1.373-1.507-1.827a6.029 6.029 0 00-2.147-.971 10.545 10.545 0 00-2.479-.29h-2.465v12.005h2.349c.89 0 1.745-.101 2.567-.304a6.07 6.07 0 002.175-1c.628-.465 1.13-1.083 1.508-1.857.376-.773.565-1.73.565-2.87zm22.503 3.277v.58c0 .193-.01.377-.03.55H80.632c.039.407.16.774.363 1.103.203.328.464.613.783.855s.676.43 1.073.566c.396.135.807.203 1.232.203.754 0 1.392-.14 1.914-.42a3.806 3.806 0 001.276-1.088l3.306 2.087a6.688 6.688 0 01-2.683 2.277c-1.111.532-2.402.797-3.871.797a9.24 9.24 0 01-3.074-.507 7.464 7.464 0 01-2.537-1.479 6.848 6.848 0 01-1.711-2.393c-.416-.947-.624-2.03-.624-3.247 0-1.18.203-2.248.61-3.205a7.228 7.228 0 011.652-2.436 7.371 7.371 0 012.465-1.551c.947-.368 1.972-.551 3.074-.551 1.063 0 2.04.178 2.929.536.89.358 1.653.875 2.29 1.552.639.676 1.137 1.498 1.495 2.465.357.966.536 2.068.536 3.306zM86.75 15.13c0-.754-.237-1.402-.71-1.943-.474-.542-1.185-.812-2.132-.812-.464 0-.89.072-1.276.217a3.306 3.306 0 00-1.015.595 2.94 2.94 0 00-.696.884 2.59 2.59 0 00-.29 1.059h6.119zm23.605 2.9c0 1.122-.222 2.064-.667 2.828a5.282 5.282 0 01-1.769 1.841 7.693 7.693 0 01-2.508 1c-.938.204-1.899.305-2.885.305h-8.178V3.473h8.178c.792 0 1.604.082 2.435.246a7.204 7.204 0 012.263.841 4.787 4.787 0 011.652 1.61c.426.676.638 1.537.638 2.58 0 1.141-.309 2.084-.928 2.828-.618.744-1.43 1.28-2.436 1.61v.057c.58.097 1.127.276 1.639.537s.957.595 1.334 1c.377.406.677.88.899 1.421.222.542.333 1.15.333 1.827zm-5.625-8.612c0-.696-.266-1.204-.798-1.523-.532-.319-1.319-.478-2.363-.478h-2.436v4.234h2.667c.929 0 1.649-.189 2.161-.566.512-.377.769-.933.769-1.667zm.666 8.149c0-.851-.319-1.44-.957-1.77-.638-.328-1.488-.493-2.551-.493h-2.755v4.698h2.783c.387 0 .788-.033 1.204-.101a3.778 3.778 0 001.131-.363 2.17 2.17 0 00.826-.74c.213-.318.319-.729.319-1.231zm7.771-6.033a8.331 8.331 0 012.973-1.827 10.187 10.187 0 013.466-.61c1.217 0 2.247.15 3.089.45.84.3 1.522.764 2.044 1.392.52.629.902 1.421 1.145 2.378.242.957.363 2.093.363 3.408v7.278h-4.35v-1.537h-.088c-.368.6-.922 1.064-1.668 1.392a5.92 5.92 0 01-2.421.494 7.41 7.41 0 01-1.798-.233 5.265 5.265 0 01-1.696-.753 4.079 4.079 0 01-1.261-1.392c-.33-.58-.494-1.296-.494-2.146 0-1.044.285-1.885.856-2.523.57-.638 1.306-1.131 2.205-1.48.897-.347 1.899-.58 3-.695a30.75 30.75 0 013.219-.174v-.232c0-.716-.251-1.242-.753-1.58-.503-.34-1.121-.508-1.857-.508-.676 0-1.328.145-1.957.435a6.263 6.263 0 00-1.61 1.044l-2.407-2.581zm8.73 6.177h-.609c-.522 0-1.049.024-1.581.072a6.501 6.501 0 00-1.421.276 2.627 2.627 0 00-1.03.594c-.271.261-.406.604-.406 1.03 0 .27.064.502.189.696.126.193.284.348.478.463.193.117.416.199.668.247.251.048.492.073.724.073.968 0 1.707-.266 2.219-.798.512-.532.769-1.252.769-2.16v-.493z" fill="#fff"/><path d="M139.267 24.004v-7.888c0-.406-.034-.793-.101-1.16a3.198 3.198 0 00-.334-.971 1.721 1.721 0 00-.653-.667c-.279-.165-.633-.247-1.057-.247-.426 0-.798.082-1.118.247a2.258 2.258 0 00-.796.681c-.214.29-.372.624-.48 1a4.319 4.319 0 00-.158 1.175v7.83h-4.786V9.562h4.611v2.001h.059c.173-.31.4-.614.68-.913.281-.3.611-.556.987-.769a6.122 6.122 0 011.232-.522 4.858 4.858 0 011.421-.203c.966 0 1.789.174 2.466.522.675.348 1.222.798 1.638 1.349.416.55.715 1.184.899 1.9.183.714.276 1.43.276 2.145v8.932h-4.786zm23.896-.002h-5.887l-4.727-6.931h-.087V24h-4.785V2.079h4.785v13.34h.087l4.611-5.858h5.771l-5.567 6.525 5.799 7.917zM59.914 39.73v-4.326l3.748-5.65h-2.057l-2.537 4.199-2.508-4.2h-2.17l3.748 5.65v4.326h1.776z" fill="#fff"/><path fill-rule="evenodd" clip-rule="evenodd" d="M66.382 39.927c.507 0 .986-.09 1.437-.268.45-.178.84-.425 1.169-.74a3.47 3.47 0 00.782-1.134c.193-.441.289-.93.289-1.465s-.096-1.021-.289-1.458a3.412 3.412 0 00-.782-1.12 3.445 3.445 0 00-1.17-.719 4.056 4.056 0 00-1.436-.254c-.508 0-.987.085-1.438.254-.45.17-.84.409-1.17.719a3.41 3.41 0 00-.781 1.12 3.577 3.577 0 00-.289 1.458c0 .535.096 1.024.289 1.465.192.442.453.82.782 1.135.329.314.718.56 1.17.74.45.178.93.267 1.437.267zm0-1.41c-.339 0-.63-.065-.874-.196a1.881 1.881 0 01-.606-.507 2.172 2.172 0 01-.36-.705 2.636 2.636 0 010-1.57c.08-.26.2-.492.36-.698.16-.207.362-.374.606-.5a1.87 1.87 0 01.874-.19c.337 0 .629.063.873.19.244.126.446.293.606.5.16.206.28.439.36.697a2.639 2.639 0 010 1.571c-.08.263-.2.498-.36.705a1.9 1.9 0 01-.606.507 1.819 1.819 0 01-.873.197z" fill="#fff"/><path d="M74.13 39.925c.508 0 .947-.13 1.318-.387.37-.259.632-.557.782-.895h.028v1.085h1.606v-6.763h-1.69v3.72c0 .225-.033.448-.1.669a1.84 1.84 0 01-.288.584 1.457 1.457 0 01-1.19.578c-.273 0-.491-.056-.656-.17a1.216 1.216 0 01-.387-.429 1.67 1.67 0 01-.183-.584 4.798 4.798 0 01-.043-.62v-3.748h-1.69v4.227c0 .347.047.685.14 1.014.094.329.242.62.445.874.202.253.46.458.774.613.315.155.693.232 1.135.232zm7.453-.195v-3.621c0-.122.024-.287.07-.493a1.81 1.81 0 01.268-.606c.132-.197.315-.366.55-.508.235-.14.545-.21.93-.21a2.009 2.009 0 01.521.07v-1.55a.783.783 0 00-.197-.035 3.391 3.391 0 00-.212-.008c-.45 0-.845.123-1.183.367a2.467 2.467 0 00-.789.958h-.028v-1.127h-1.62v6.763h1.69z" fill="#fff"/><path fill-rule="evenodd" clip-rule="evenodd" d="M92.163 39.73c.648 0 1.301-.097 1.959-.29a5.36 5.36 0 001.775-.894c.526-.404.953-.92 1.282-1.55.329-.63.493-1.38.493-2.254 0-.94-.164-1.726-.493-2.36a4.387 4.387 0 00-1.282-1.536 5.072 5.072 0 00-1.775-.838 7.843 7.843 0 00-1.959-.254h-3.536v9.975h3.536zm-1.76-1.55v-6.904h1.479c.46 0 .92.047 1.38.14.46.095.876.268 1.247.522.371.253.674.606.909 1.057.235.45.352 1.033.352 1.747 0 .676-.117 1.235-.352 1.676a2.92 2.92 0 01-.909 1.05 3.6 3.6 0 01-1.247.55c-.46.108-.92.161-1.38.161h-1.48zm12.145 1.747c1.268 0 2.236-.451 2.903-1.353l-1.128-.901a1.999 1.999 0 01-.718.64c-.291.156-.648.233-1.071.233-.244 0-.479-.042-.704-.127a2.122 2.122 0 01-.606-.345 1.677 1.677 0 01-.62-1.19h5.142c.01-.075.015-.15.015-.226v-.225c0-.61-.083-1.144-.247-1.6a3.199 3.199 0 00-.683-1.14 2.835 2.835 0 00-1.036-.691 3.57 3.57 0 00-1.303-.233c-.508 0-.979.087-1.416.261a3.37 3.37 0 00-1.134.733c-.32.314-.571.695-.754 1.141a3.879 3.879 0 00-.275 1.486c0 .555.092 1.05.275 1.487.183.437.436.805.76 1.106.325.3.707.533 1.149.697.441.165.925.247 1.451.247zm-1.944-4.255c.037-.48.232-.871.585-1.176.352-.306.781-.459 1.289-.459.272 0 .509.045.711.134.202.09.369.21.5.36.132.15.228.324.289.521.061.197.092.404.092.62h-3.466z" fill="#fff"/><path d="M109.255 39.73v-4.2h4.396v-1.493h-4.396v-2.733h4.663v-1.55h-6.439v9.975h1.776zm6.818-8.043c.31 0 .571-.096.782-.289a.939.939 0 00.318-.725.939.939 0 00-.318-.726 1.118 1.118 0 00-.782-.289c-.31 0-.566.101-.767.303a.973.973 0 00-.303.712c0 .272.101.51.303.711.201.202.457.303.767.303zm.862 8.041v-6.763h-1.691v6.763h1.691zm9.115.002l2.338-7.482h.029l2.338 7.481h1.72l2.916-9.975h-1.888l-1.973 7.326h-.028l-2.157-7.326h-1.83l-2.198 7.326h-.028l-1.93-7.326h-1.945l2.916 9.975h1.72z" fill="#fff"/><path fill-rule="evenodd" clip-rule="evenodd" d="M138.039 39.899c.48 0 .908-.096 1.283-.289.375-.193.648-.44.817-.74h.043v.86h1.578v-4.114c0-.339-.044-.677-.134-1.015a2.384 2.384 0 00-.472-.916c-.225-.272-.533-.493-.923-.662-.39-.169-.885-.254-1.487-.254a4.56 4.56 0 00-1.529.268 3.817 3.817 0 00-1.331.803l.875 1.029c.215-.216.487-.4.815-.55.33-.15.673-.225 1.03-.225.423 0 .786.1 1.092.303.305.202.458.514.458.937v.169c-.527 0-1.064.026-1.614.077a6.256 6.256 0 00-1.501.317c-.45.16-.819.39-1.106.69-.286.301-.429.705-.429 1.212 0 .395.081.726.246.994.165.267.372.483.62.648.25.164.522.282.818.352.295.07.579.106.851.106zm.34-1.282a2.16 2.16 0 01-.423-.043 1.246 1.246 0 01-.382-.14.724.724 0 01-.38-.662c0-.254.085-.454.255-.6.168-.145.38-.258.633-.338a3.77 3.77 0 01.832-.155c.3-.023.587-.035.86-.035h.38v.24c0 .535-.15.958-.452 1.268-.3.31-.741.465-1.323.465z" fill="#fff"/><path d="M145.451 39.73V29.078h-1.692V39.73h1.692zm3.776 0V29.078h-1.69V39.73h1.69z" fill="#fff"/><path fill-rule="evenodd" clip-rule="evenodd" d="M154.525 39.927c1.268 0 2.235-.451 2.901-1.353l-1.126-.901a2.01 2.01 0 01-.719.64c-.291.156-.648.233-1.071.233-.245 0-.479-.042-.705-.127a2.13 2.13 0 01-.605-.345 1.692 1.692 0 01-.62-1.19h5.143c.01-.075.013-.15.013-.226v-.225c0-.61-.082-1.144-.246-1.6a3.186 3.186 0 00-.684-1.14 2.815 2.815 0 00-1.035-.691 3.567 3.567 0 00-1.303-.233c-.508 0-.979.087-1.416.261a3.374 3.374 0 00-1.134.733c-.32.314-.571.695-.754 1.141a3.883 3.883 0 00-.274 1.486c0 .555.091 1.05.274 1.487.183.437.437.805.76 1.106.325.3.708.533 1.149.697.442.165.925.247 1.452.247zm-1.945-4.255a1.67 1.67 0 01.584-1.176c.353-.306.783-.459 1.289-.459.273 0 .511.045.712.134a1.384 1.384 0 01.789.88c.061.198.092.405.092.62h-3.466z" fill="#fff"/><path d="M161.781 39.87c.187 0 .385-.017.59-.05.208-.032.386-.077.537-.133l-.057-1.324c-.103.046-.22.082-.352.105a2.08 2.08 0 01-.366.035c-.377 0-.618-.098-.726-.295-.108-.198-.161-.447-.161-.747v-3.142h1.69v-1.353h-1.69v-1.958h-1.663v1.958h-1.185v1.353h1.185v3.156c0 .329.029.636.091.923.061.286.173.54.338.76.165.221.387.395.669.522.282.127.648.19 1.1.19z" fill="#fff"/></svg>