<svg width="152" height="46" viewBox="0 0 152 46" fill="none" xmlns="http://www.w3.org/2000/svg"><path d="M13.827.02c2.415 1.836 5.585 7.493 5.585 14.062 0 3.276-2.402 6.434-4.907 9.726-2.923 3.841-5.984 7.866-5.532 12.475.333 3.45 1.758 6.016 2.64 7.603.93 1.676 1.255 2.26-.956 1.636-7.724-2.166-15.294-13.888-7.147-24.58.746-.98 1.623-1.907 2.542-2.879 3.426-3.621 7.452-7.876 7.609-17.882-.02-.265.166-.161.166-.161zM150.866 16c.702-1.712-.103-3.675-1.799-4.384a3.313 3.313 0 00-4.343 1.816c-.703 1.712.103 3.675 1.799 4.384A3.313 3.313 0 00150.866 16zM56.11 24.33V11.406h4.31c.916 0 1.66.75 1.66 1.675v30.942h-4.33a1.668 1.668 0 01-1.633-1.7V29.58h-12.72v14.424h-4.304c-.915 0-1.658-.75-1.658-1.675V11.406h4.303c.916 0 1.66.75 1.66 1.675V24.33H56.11zm25.246 10.661V19.494h4.303c.916 0 1.66.75 1.66 1.675v14.087c-.014 5.088-4.1 9.213-9.14 9.226h-2.447c-5.034-.026-9.107-4.138-9.12-9.22V19.495h4.304c.916 0 1.659.75 1.659 1.675v13.538c0 3.232 3.49 5.695 6.859 3.73a3.977 3.977 0 001.922-3.446zm69.417 9.032h-4.316a1.667 1.667 0 01-1.646-1.688V20.393h4.303c.916 0 1.659.75 1.659 1.674v21.956z" fill="#fff"/><path fill-rule="evenodd" clip-rule="evenodd" d="M91.348 30.288c0-6.303 5.11-10.81 11.355-10.81 6.251 0 11.362 4.507 11.355 10.81v3.407c0 6.304-5.111 10.784-11.355 10.784-6.245 0-11.355-4.48-11.355-10.784v-3.407zm11.348 8.78c2.959 0 5.374-1.985 5.374-4.965v-4.254c0-2.98-2.421-4.966-5.374-4.966-2.952 0-5.367 1.985-5.367 4.966v4.254c0 2.98 2.408 4.965 5.367 4.965zm26.747-19.588a12.125 12.125 0 00-5.399 1.235v-7.603c0-.925-.743-1.675-1.659-1.675h-4.304v22.26c0 6.303 5.111 10.784 11.355 10.784 6.245 0 11.356-4.48 11.356-10.784V30.29c.006-6.304-5.092-10.81-11.349-10.81zm5.373 14.624c0 2.98-2.414 4.965-5.373 4.965-2.953 0-5.367-1.984-5.367-4.965V29.85c0-2.98 2.414-4.965 5.367-4.965 2.952 0 5.373 1.985 5.373 4.965v4.254z" fill="#fff"/><path d="M23.115 18.406c-.051-.033-.122-.058-.167.026-.134 1.596-1.748 5.01-3.798 8.152-6.948 10.642-2.99 15.775-.762 18.536.398.49.551.68.666.659.073-.014.13-.11.223-.265.242-.404.725-1.212 2.34-2.03 3.99-2.444 6.577-6.672 6.96-11.366.635-7.564-3.861-12.329-5.462-13.712z" fill="#fff"/></svg>