<svg width="18" height="19" viewBox="0 0 18 19" fill="none" xmlns="http://www.w3.org/2000/svg"><path d="M9.005 1.622c2.406 0 2.691.01 3.638.052.879.04 1.354.187 1.67.31.42.162.722.359 1.035.672.316.316.51.615.671 1.034.124.317.271.795.31 1.671.042.95.053 1.235.053 3.637 0 2.406-.01 2.691-.053 3.638-.039.879-.186 1.354-.31 1.67a2.785 2.785 0 01-.671 1.035 2.77 2.77 0 01-1.035.671c-.316.124-.795.271-1.67.31-.95.042-1.235.053-3.638.053-2.406 0-2.69-.01-3.637-.053-.88-.039-1.354-.186-1.67-.31a2.784 2.784 0 01-1.035-.671 2.77 2.77 0 01-.672-1.035c-.123-.316-.27-.795-.31-1.67-.042-.95-.052-1.235-.052-3.638 0-2.406.01-2.69.052-3.637.04-.88.187-1.354.31-1.671.162-.419.359-.721.672-1.034a2.77 2.77 0 011.034-.672c.317-.123.795-.27 1.671-.31.946-.042 1.231-.052 3.637-.052zm0-1.622c-2.445 0-2.75.01-3.71.053C4.336.095 3.68.25 3.11.47a4.395 4.395 0 00-1.597 1.042c-.503.5-.81 1.002-1.042 1.593C.25 3.68.095 4.334.053 5.291.01 6.254 0 6.56 0 9.005c0 2.445.01 2.751.053 3.711.042.957.197 1.615.418 2.185a4.395 4.395 0 001.042 1.597c.5.5 1.002.809 1.593 1.038.574.221 1.228.376 2.185.418.96.043 1.266.053 3.71.053 2.446 0 2.752-.01 3.712-.053.957-.042 1.615-.197 2.184-.418a4.401 4.401 0 001.594-1.038c.5-.5.809-1.003 1.038-1.594.221-.573.376-1.227.418-2.184.042-.96.053-1.266.053-3.711s-.01-2.751-.053-3.711c-.042-.957-.197-1.615-.418-2.185a4.217 4.217 0 00-1.031-1.6c-.5-.5-1.003-.81-1.594-1.038-.573-.222-1.227-.377-2.184-.419C11.756.011 11.45 0 9.005 0z" fill="#fff"/><path d="M9.005 4.375a4.627 4.627 0 000 9.252 4.627 4.627 0 000-9.252zm0 7.626a3.001 3.001 0 110-6.002 3.001 3.001 0 010 6.002zm5.889-7.808a1.08 1.08 0 11-2.16 0 1.08 1.08 0 012.16 0z" fill="#fff"/></svg>