<svg width="251" height="36" viewBox="0 0 251 36" fill="none" xmlns="http://www.w3.org/2000/svg"><path d="M5.332 7.569v27.538H0V3.117C0 .55 2.93-.913 4.98.63l25.325 19.06a3.11 3.11 0 011.24 2.485v12.931h-5.332V23.285L5.331 7.569zM91.314 4.89a3.79 3.79 0 00-3.789 3.79v23.96h4.92V11.88l6.634 10.826a4.154 4.154 0 007.079.008l6.671-10.834v20.76h4.92V8.503a3.613 3.613 0 00-6.729-1.83l-8.305 14.15-8.12-14.041a3.789 3.789 0 00-3.28-1.892z" fill="#fff"/><path fill-rule="evenodd" clip-rule="evenodd" d="M140.472 4.89a3.965 3.965 0 00-3.686 2.505l-10 25.244h4.764l3.105-7.265h11.324l3.104 7.265h5.057l-9.982-25.242a3.963 3.963 0 00-3.686-2.506zm-.155 5.683l3.944 10.29h-7.908l3.964-10.29z" fill="#fff"/><path d="M167.454 17.603l12-12.058a2.222 2.222 0 011.575-.654c1.983 0 2.973 2.399 1.568 3.798l-9.52 9.48 14.038 14.47h-6.385l-13.276-13.435v13.434h-4.921V7.352a2.46 2.46 0 014.921 0v10.252zm28.367 10.592a4.443 4.443 0 004.443 4.444h12.758a2.265 2.265 0 000-4.53h-12.261v-7.5h11.188a2.265 2.265 0 000-4.53h-11.188V9.422h12.261a2.265 2.265 0 000-4.53h-12.758a4.443 4.443 0 00-4.443 4.443v18.861z" fill="#fff"/><path fill-rule="evenodd" clip-rule="evenodd" d="M247.987 12.838a9.53 9.53 0 01-.332 2.539 8.15 8.15 0 01-1.015 2.304c-.455.742-1.086 1.406-1.894 1.992-.794.585-1.737 1.041-2.831 1.366l8.376 11.6h-6.404l-7.77-10.76h-4.706v10.76h-4.92V9.334a4.443 4.443 0 014.443-4.443h7.37c.585 0 1.119.02 1.6.058.495.026 1.087.104 1.777.234.703.118 1.321.28 1.855.489a7.718 7.718 0 011.679.917 5.566 5.566 0 011.445 1.426c.39.534.709 1.217.956 2.05.248.82.371 1.745.371 2.773zm-16.576-3.437v7.948h4.53c.781 0 1.471-.026 2.069-.078a12.255 12.255 0 001.855-.313c.638-.169 1.159-.397 1.562-.683.417-.286.755-.684 1.016-1.191.273-.508.41-1.107.41-1.797 0-2.59-1.998-3.886-5.994-3.886h-5.448z" fill="#fff"/><path d="M61.756 35.107V7.57L40.874 23.285v11.822h-5.331v-12.93c0-.978.46-1.898 1.24-2.486L62.108.631c2.05-1.543 4.98-.08 4.98 2.485v31.991h-5.332z" fill="#fff"/></svg>