<svg width="311" height="49" viewBox="0 0 311 49" fill="none" xmlns="http://www.w3.org/2000/svg"><path d="M60.245 40.505c-.777 0-1.166-.195-1.555-.39-.194-.389-.388-.778-.388-1.362V16.947c0-.584.194-1.168.388-1.363.39-.39.778-.584 1.555-.584h9.134c3.498 0 6.025.779 7.774 2.142 1.555 1.557 2.526 3.699 2.526 6.62 0 2.92-.777 5.061-2.526 6.619-1.555 1.363-4.276 2.142-7.774 2.142h-3.498v6.035c0 .584-.194 1.168-.389 1.363-.388.39-.777.39-1.554.39h-3.693v.194zm8.551-13.434c.972 0 1.75-.195 2.332-.779.583-.584.778-1.363.778-2.53 0-1.169-.195-1.948-.778-2.532-.583-.584-1.36-.779-2.332-.779h-2.915v6.62h2.915zm20.978 14.204c-2.332 0-4.276-.779-5.636-2.336-1.36-1.558-2.138-3.7-2.138-6.425 0-2.142.389-3.894 1.36-5.452.972-1.558 2.332-2.726 4.082-3.7C89.19 22.585 91.328 22 93.466 22c1.944 0 3.498.195 5.053.584 1.555.39 2.721.974 4.081 1.752v14.992c0 .39 0 .779-.194.973-.195.195-.583.195-.972.195h-3.887c-.194 0-.583 0-.583-.195l-.388-.389-.583-1.168c-.778.779-1.555 1.363-2.527 1.752-.972.584-2.332.779-3.692.779zm2.72-5.062c.972 0 1.75-.195 2.332-.779.584-.39.778-1.168.778-1.947v-5.84c-.389-.195-1.166-.39-1.75-.39-1.36 0-2.331.39-3.109 1.363-.777.973-1.166 2.141-1.166 3.894 0 2.336.972 3.699 2.915 3.699zm14.449 4.283c-.777 0-1.166-.195-1.554-.39-.389-.389-.389-.778-.389-1.362V23.558c0-.39 0-.78.194-.974.195-.195.583-.195.972-.195h3.887c.389 0 .583 0 .583.195.194 0 .194.195.389.39l.194 1.168c.777-.78 1.555-1.168 2.721-1.558 1.166-.39 2.332-.584 3.887-.584 1.943 0 3.692.584 4.858 1.752 1.166 1.168 1.943 2.726 1.943 5.062v9.93c0 .584-.194 1.168-.388 1.363-.195.39-.778.39-1.555.39h-3.692c-.778 0-1.166-.196-1.555-.39-.389-.39-.389-.78-.389-1.363v-9.54c0-.779-.194-1.363-.583-1.558-.389-.39-.777-.584-1.555-.584-.777 0-1.36.195-1.749.584-.388.39-.583.974-.583 1.558v9.345c0 .584-.194 1.168-.388 1.363-.195.39-.778.39-1.555.39h-3.693v.194zm31.134.584c-3.498 0-6.218-.779-8.162-2.53-1.943-1.558-2.915-3.895-2.915-7.01 0-1.947.389-3.504 1.36-5.062.778-1.363 2.138-2.531 3.693-3.31 1.749-.779 3.692-1.168 5.83-1.168 1.749 0 3.11.195 4.276.584 1.166.39 2.332.779 3.109 1.558.194.194.389.389.389.584 0 .194-.195.39-.389.779l-1.555 2.725c-.194.39-.388.584-.583.584-.194 0-.388-.194-.777-.389-.583-.39-1.36-.779-1.943-.974-.583-.194-1.361-.389-2.138-.389-1.166 0-2.332.39-3.11 1.168-.777.78-1.166 1.947-1.166 3.31s.389 2.531 1.166 3.31c.778.779 1.749 1.168 3.11 1.168.777 0 1.555-.195 2.138-.39.583-.194 1.36-.583 1.943-.973.389-.194.583-.39.777-.39.195 0 .389.196.583.585l1.749 2.92c.195.195.195.39.195.584 0 .195-.195.39-.389.584-.972.585-2.138 1.169-3.498 1.558-.583.39-1.943.584-3.693.584zm17.697.195c-2.332 0-4.276-.779-5.636-2.336-1.361-1.558-2.138-3.7-2.138-6.425 0-2.142.389-3.894 1.36-5.452.972-1.558 2.332-2.726 4.082-3.7 1.749-.778 3.886-1.362 6.024-1.362 1.944 0 3.498.195 5.053.584 1.555.39 2.721.974 4.081 1.752v14.992c0 .39 0 .779-.194.973-.195.195-.583.195-.972.195h-3.887c-.194 0-.583 0-.583-.195l-.388-.389-.583-1.168c-.778.779-1.555 1.363-2.527 1.752-.972.584-2.138.779-3.692.779zm2.915-5.062c.971 0 1.749-.195 2.332-.779.583-.39.777-1.168.777-1.947v-5.84c-.388-.195-1.166-.39-1.749-.39-1.36 0-2.332.39-3.109 1.363-.778.973-1.166 2.141-1.166 3.894-.195 2.336.777 3.699 2.915 3.699zm32.717 2.929c.194.195.194.39.194.584 0 .195 0 .39-.194.584-.195.195-.389.195-.583.195h-6.608c-.194 0-.388-.195-.583-.39l-5.053-7.008v5.451c0 .584-.194 1.168-.388 1.363-.389.39-.778.39-1.555.39h-3.693c-.777 0-1.166-.195-1.554-.39-.195-.39-.389-.779-.389-1.363V16.947c0-.584.194-1.168.389-1.363.388-.39.777-.584 1.554-.584h3.693c.777 0 1.166.195 1.555.584.388.39.388.779.388 1.363v12.46l4.859-6.424c.194-.195.389-.39.583-.39.194 0 .389-.195.777-.195h5.83c.195 0 .389 0 .584.195.194.195.194.39.194.584 0 .195 0 .39-.194.584l-6.414 7.399 6.608 7.982zm13.477 1.744c-2.138 0-3.887-.39-5.636-.974-1.555-.779-2.915-1.752-3.887-3.115-.971-1.363-1.36-3.115-1.36-5.062 0-3.115.972-5.646 2.721-7.204 1.749-1.752 4.47-2.531 7.773-2.531 3.304 0 5.831.779 7.385 2.531 1.749 1.558 2.527 3.894 2.527 6.814 0 1.169-.583 1.947-1.555 1.947h-11.66c0 1.169.388 1.947 1.166 2.531.777.584 2.137.78 3.692.78.972 0 1.944 0 2.527-.196.777-.194 1.36-.584 2.137-.778.389-.195.583-.195.583-.195.195 0 .389.195.583.39l1.361 2.336c.194.195.194.39.194.584 0 .195-.194.39-.389.584-.971.584-2.137 1.168-3.498 1.557-1.554-.194-2.915 0-4.664 0zm2.915-11.682c0-.974-.194-1.753-.777-2.142-.583-.584-1.361-.779-2.527-.779-1.166 0-1.943.195-2.526.78-.583.583-.777 1.167-.777 2.14h6.607zm19.279 12.08c-2.137 0-4.081-.195-6.024-.584-1.944-.39-3.304-1.168-4.47-1.947-.389-.195-.583-.584-.583-.779 0-.195 0-.39.194-.584l1.749-2.92c.195-.39.389-.39.583-.39.195 0 .389 0 .583.195.972.584 1.944.973 3.11 1.363s2.332.584 3.498.584c1.166 0 1.943-.195 2.527-.584.583-.39.777-.974.777-1.752 0-.78-.389-1.363-.972-1.753-.583-.39-1.749-.973-3.498-1.557-2.526-.974-4.47-1.947-5.83-3.116-1.361-1.168-2.138-2.92-2.138-4.867 0-2.53.972-4.283 2.721-5.646C221.053 15.584 223.385 15 226.3 15c2.138 0 3.887.195 5.247.584 1.555.39 2.721.974 3.693 1.558.388.389.583.584.583.973 0 .195 0 .39-.195.584l-1.749 2.92c-.194.39-.388.39-.583.39-.194 0-.388 0-.583-.195-1.36-.973-3.109-1.363-5.247-1.363-1.166 0-1.943.195-2.526.585-.583.389-.778.973-.778 1.752 0 .584.195.973.389 1.363.389.39.777.584 1.166.973.583.195 1.36.584 2.332.974l.778.194c1.749.78 3.303 1.363 4.275 2.142 1.166.584 1.943 1.558 2.526 2.531.583.974.778 2.142.778 3.505 0 2.141-.778 4.088-2.527 5.256-1.166.78-3.692 1.558-6.802 1.558zm16.948-1.177c-.389 0-.583 0-.778-.195-.194-.195-.388-.39-.388-.779L238 22.973v-.389c0-.39.194-.584.777-.584h4.859c.389 0 .583 0 .777.195.195.194.195.194.389.584l1.943 8.566 2.527-6.814c.194-.39.194-.584.388-.584.195-.195.389-.195.778-.195h2.332c.389 0 .583 0 .777.195.195.195.195.39.389.584l2.526 6.814 2.138-8.566c0-.195.195-.39.389-.584.194-.195.389-.195.583-.195h5.053c.583 0 .777.195.777.584v.39l-4.858 16.16c-.195.389-.195.583-.389.778-.194.195-.389.195-.777.195h-3.693c-.389 0-.583 0-.777-.195-.195-.195-.389-.39-.389-.779l-2.526-6.814-2.527 6.814c-.194.39-.194.584-.389.779-.194.195-.388.195-.777.195h-4.275zm30.749 1.168c-2.332 0-4.276-.779-5.636-2.336-1.361-1.558-2.138-3.7-2.138-6.425 0-2.142.389-3.894 1.36-5.452.972-1.558 2.332-2.726 4.082-3.7 1.749-.778 3.886-1.362 6.024-1.362 1.944 0 3.498.195 5.053.584 1.555.39 2.721.974 4.081 1.752v14.992c0 .39 0 .779-.194.973-.195.195-.583.195-.972.195h-3.887c-.194 0-.388 0-.583-.195l-.388-.389-.583-1.168c-.778.779-1.555 1.363-2.527 1.752-.972.584-2.138.779-3.692.779zm2.915-5.062c.971 0 1.749-.195 2.332-.779.583-.39.777-1.168.777-1.947v-5.84c-.388-.195-1.166-.39-1.749-.39-1.36 0-2.332.39-3.109 1.363-.778.973-1.166 2.141-1.166 3.894-.195 2.336.777 3.699 2.915 3.699zm14.254 11.682c-.777 0-1.166-.195-1.554-.39-.195-.39-.389-.779-.389-1.363V24.726c1.166-.779 2.526-1.558 4.276-1.947 1.749-.584 3.498-.779 5.247-.779 7.579 0 11.272 3.115 11.272 9.54 0 2.92-.778 5.257-2.333 7.01-1.554 1.751-3.886 2.53-6.802 2.53-.777 0-1.554-.194-2.332-.39-.777-.194-1.36-.389-1.943-.778v6.23c0 .584-.194 1.168-.389 1.363-.388.39-.777.39-1.554.39h-3.499zm8.163-12.072c1.166 0 1.943-.389 2.332-1.168.583-.779.777-1.947.777-3.31 0-1.557-.388-2.725-.972-3.504-.583-.584-1.554-.974-2.915-.974-.777 0-1.554.195-1.943.39v5.84c0 .78.194 1.558.777 1.948.389.584 1.166.778 1.944.778z" fill="#fff"/><path fill-rule="evenodd" clip-rule="evenodd" d="M8.745 7.593C7.968 3.7 11.077 0 14.965 0c3.497 0 6.413 2.92 6.413 6.425v7.788h5.247V6.425C26.625 2.92 29.54 0 33.038 0c3.887 0 6.996 3.7 6.219 7.593l-1.75 9.15c5.831 2.532 10.3 7.01 10.3 12.656v3.31c0 4.673-3.108 8.566-7.384 11.098-4.276 2.725-10.106 4.283-16.519 4.283-6.413 0-12.243-1.558-16.519-4.283C3.109 41.275 0 37.382 0 32.709v-3.31c0-5.646 4.47-10.124 10.3-12.655l-1.555-9.15zM35.37 18.107l1.944-10.709c.583-2.725-1.555-5.256-4.276-5.256-2.526 0-4.47 1.947-4.47 4.478v9.93c-.583 0-1.36-.195-1.943-.195h-2.527c-.971 0-1.749 0-2.72.194-.584 0-1.36.195-1.944.195v-9.93c0-2.53-1.943-4.478-4.47-4.478-2.72 0-4.858 2.531-4.275 5.257l1.943 10.903c-6.219 2.337-10.494 6.62-10.494 11.487v3.31c0 7.398 9.717 13.434 21.766 13.434 12.05 0 21.766-6.036 21.766-13.434v-3.31c.194-5.257-4.081-9.54-10.3-11.876z" fill="#fff"/><path fill-rule="evenodd" clip-rule="evenodd" d="M10.689 7.204c-.583-2.726 1.554-5.257 4.275-5.257 2.527 0 4.47 1.947 4.47 4.478V16.55c1.555-.194 3.11-.389 4.664-.389 1.555 0 3.11.195 4.47.195v-9.93c0-2.53 1.944-4.478 4.47-4.478 2.72 0 4.859 2.531 4.275 5.257L35.37 17.912c6.413 2.337 10.689 6.62 10.689 11.487 0 7.399-9.717 13.434-21.766 13.434-12.05 0-21.767-6.035-21.767-13.434 0-4.867 4.276-9.15 10.495-11.487L10.689 7.204z" fill="#fff"/><path d="M18.073 28.623c0 1.947-1.166 3.7-2.332 3.7s-2.332-1.558-2.332-3.7c0-1.947 1.166-3.7 2.332-3.7s2.332 1.558 2.332 3.7zm16.714 0c0 1.947-1.166 3.7-2.332 3.7-1.36 0-2.332-1.558-2.332-3.7 0-1.947 1.166-3.7 2.332-3.7s2.332 1.558 2.332 3.7z" fill="#000"/></svg>