<svg width="180" height="35" viewBox="0 0 180 35" fill="none" xmlns="http://www.w3.org/2000/svg"><path fill-rule="evenodd" clip-rule="evenodd" d="M12.915 33.925c-5.065 0-9.18-1.176-12.436-3.03l2.849-8.638h.226c1.583 6.331 6.512 9.587 11.08 9.587 2.577 0 4.477-1.492 4.477-3.89 0-1.446-.588-2.803-3.211-3.979l-7.507-3.437c-4.432-2.08-6.739-5.788-6.739-9.768C1.654 5.84 4.774.459 13.82.459c4.07 0 8.774 1.311 11.442 2.804l-3.256 7.417h-.226c-1.81-5.563-5.834-8.231-9.768-8.231-3.302 0-4.478 1.673-4.478 3.165 0 1.493.77 2.895 3.166 4.07l7.733 3.664c4.975 2.306 6.467 5.155 6.467 9.09 0 6.421-4.793 11.487-11.984 11.487zm27.116-6.965c2.261 0 3.935-.678 5.156-2.397l.361.09c-1.22 6.965-5.924 9.045-9.542 9.045-5.2 0-10.31-4.16-10.31-12.074 0-7.598 4.476-13.025 10.627-13.025 3.844 0 9.316 2.035 9.316 10.628H32.615c.678 5.11 3.391 7.733 7.416 7.733zm-4.703-16.868c-1.854 0-2.894 2.396-2.894 6.467 0 .452 0 .859.045 1.266h5.608c0-5.97-.95-7.733-2.759-7.733zM62.716 26.87l.407.135c-.995 3.347-3.709 6.693-8.412 6.693-4.296 0-6.196-2.758-6.196-6.512V10.544H46.3v-.226c3.483-2.985 7.19-5.744 10.764-8.864h.045v7.914h4.16v1.13h-4.16v15.467c0 1.945.86 3.211 2.442 3.211 1.764 0 2.759-1.176 3.166-2.306z" fill="#fff"/><path d="M77.833 1.453v32.47" stroke="#fff" stroke-linecap="square"/><path d="M96.287 25.691V14.618h-3.612v-1.906h9.657v1.906H98.72v11.073h-2.433zm10.531-1.524c1.633 0 2.613-1.217 2.613-3.16v-.126c0-1.96-.98-3.159-2.613-3.159-1.634 0-2.633 1.18-2.633 3.14v.146c0 1.942.963 3.159 2.633 3.159zm-.019 1.706c-2.795 0-4.864-1.943-4.864-4.829V20.9c0-2.94 2.087-4.901 4.883-4.901 2.777 0 4.864 1.942 4.864 4.847v.145c0 2.959-2.087 4.883-4.883 4.883zm6.701-.182V11.805h2.196v8.568l3.395-4.175h2.396l-3.685 4.356 3.993 5.137h-2.541l-3.558-4.665v4.665H113.5zm13.362.182c-2.796 0-4.811-1.834-4.811-4.829V20.9c0-2.94 2.015-4.901 4.72-4.901 2.36 0 4.484 1.398 4.484 4.792v.635h-6.953c.073 1.797.981 2.814 2.614 2.814 1.325 0 2.015-.526 2.179-1.452h2.123c-.308 1.997-1.924 3.086-4.356 3.086zm-2.523-5.918h4.737c-.109-1.634-.944-2.36-2.305-2.36-1.325 0-2.215.89-2.432 2.36zm8.715 5.736v-9.493h2.196v1.506c.454-.926 1.507-1.706 3.068-1.706 1.906 0 3.249 1.107 3.249 3.721v5.972h-2.196V19.92c0-1.434-.581-2.088-1.888-2.088-1.234 0-2.233.763-2.233 2.27v5.59h-2.196zm15.468.182c-3.54 0-5.029-1.761-5.21-4.212h2.323c.164 1.307.69 2.396 2.887 2.396 1.434 0 2.45-.798 2.45-1.996s-.599-1.652-2.705-1.997c-3.104-.418-4.574-1.361-4.574-3.794 0-2.124 1.815-3.721 4.52-3.721 2.795 0 4.466 1.27 4.72 3.758h-2.215c-.236-1.362-1.016-1.943-2.505-1.943-1.47 0-2.233.708-2.233 1.706 0 1.053.436 1.58 2.687 1.907 3.049.417 4.629 1.288 4.629 3.884 0 2.251-1.906 4.012-4.774 4.012zm10.948 0c-2.796 0-4.811-1.834-4.811-4.829V20.9c0-2.94 2.015-4.901 4.72-4.901 2.36 0 4.483 1.398 4.483 4.792v.635h-6.952c.073 1.797.98 2.814 2.614 2.814 1.325 0 2.015-.526 2.178-1.452h2.124c-.308 1.997-1.924 3.086-4.356 3.086zm-2.524-5.918h4.738c-.109-1.634-.944-2.36-2.305-2.36-1.325 0-2.215.89-2.433 2.36zm11.947 5.9c-1.888 0-2.868-1.017-2.868-2.814v-5.192h-1.271v-1.651h1.271V14.11h2.196v2.088h2.088v1.651h-2.088v4.992c0 .835.399 1.216 1.089 1.216.436 0 .763-.054 1.071-.181v1.743c-.345.127-.817.236-1.488.236zm6.645.018c-2.45 0-3.884-1.126-3.975-3.14h2.069c.109.962.599 1.524 1.888 1.524 1.18 0 1.707-.417 1.707-1.216 0-.78-.636-1.071-2.033-1.307-2.506-.4-3.431-1.107-3.431-2.886 0-1.906 1.779-2.85 3.558-2.85 1.942 0 3.485.726 3.721 2.868h-2.033c-.182-.871-.672-1.27-1.688-1.27-.944 0-1.507.453-1.507 1.125 0 .69.454.962 1.96 1.216 2.233.345 3.558.89 3.558 2.904 0 1.924-1.361 3.032-3.794 3.032z" fill="#fff"/></svg>