<svg width="253" height="55" viewBox="0 0 253 55" fill="none" xmlns="http://www.w3.org/2000/svg"><path fill-rule="evenodd" clip-rule="evenodd" d="M20.575 23.846c-.094.356-.258.69-.482.985a3.905 3.905 0 01-1.606 1.212 6.27 6.27 0 01-1.79.464 7.798 7.798 0 01-.386.036l-.02.001a1.855 1.855 0 00-1.073.393 1.808 1.808 0 00-.626.945 4.463 4.463 0 00-.104.563c-.035.286-.053.58-.073.896-.014.228-.03.467-.052.726a9.511 9.511 0 01-.913 3.03c-.096.2-.194.394-.29.585-.518 1.022-.985 1.946-.851 3.183.105.953.6 1.591 1.257 2.25.311.315.725.584 1.155.864 1.202.782 2.528 1.645 2.091 3.817-.357 1.76-3.314 3.608-7.47 4.254.403-.06-.485-1.556-.584-1.723l-.006-.01c-.114-.177-.232-.351-.349-.526-.338-.503-.675-1.003-.938-1.558-.694-1.45-1.016-3.127-.731-4.715.257-1.438 1.22-2.586 2.147-3.691.151-.18.301-.36.447-.539 1.24-1.52 2.54-3.51 2.828-5.484.025-.171.046-.358.07-.554.04-.352.084-.736.154-1.117.103-.66.313-1.299.62-1.893.21-.39.486-.741.816-1.038a1.032 1.032 0 00.203-1.264L7.394 12.175l9.516 11.592a1.185 1.185 0 00.902.441 1.2 1.2 0 00.92-.402.788.788 0 00.026-1.003c-.442-.559-.903-1.124-1.361-1.687l-.001-.001-.553-.681-2.395-2.926-4.807-5.842L0 0l10.258 11.143 5.116 5.584 2.552 2.799.704.777c.612.675 1.224 1.35 1.837 2.065l.139.167.03.26c.041.35.02.706-.06 1.05zm24.459 3.932l.01.015c-.002-1.247-.784-3.305-2.367-5.285l-.038-.049a15.65 15.65 0 00-1.59-1.671 13.206 13.206 0 00-2.723-1.938l-.061-.03c-2.681-1.441-6.17-2.184-10.471-1.348a21.065 21.065 0 00-1.864-1.96 10.743 10.743 0 00-3.517-2.206 9.085 9.085 0 00-4.054-.488c1.322.117 2.61.48 3.795 1.07a11.33 11.33 0 013.048 2.35c.884.97 1.716 1.986 2.49 3.043l.194.25c.758.974 1.53 1.966 2.49 2.848.53.492 1.12.915 1.756 1.26a9.465 9.465 0 001.003.431c.327.125.666.229 1.004.324 1.355.381 2.742.518 4.097.592l.564.028c.484.023.964.047 1.436.08.647.038 1.29.138 1.917.298a4.262 4.262 0 012.352 1.572c.197.257.374.53.529.814zm105.883-8.041c-4.451 1.102-6.538 4.532-5.273 8.668.543 1.772 2.21 3.56 4.568 4.896 4.249 2.41 5.501 3.385 6.228 4.855.606 1.227.658 1.637.352 2.748-.717 2.61-2.591 4.049-5.271 4.049-2.736 0-4.657-1.509-5.086-3.993-.171-.999-.384-1.318-.875-1.318-.587 0-.648.264-.648 2.795v2.794l1.779.594c2.779.927 6.731.817 9.09-.255 4.594-2.087 6.355-6.23 4.293-10.101-.772-1.449-2.707-3.065-6.023-5.03-3.485-2.066-5.037-3.57-5.266-5.096-.349-2.348 1.799-4.29 4.735-4.282 2.3.006 3.287.541 4.102 2.223.511 1.053.876 1.402 1.48 1.41.669.01.768-.112.598-.734-.113-.41-.207-1.44-.209-2.288-.004-1.076-.162-1.6-.525-1.736-.991-.372-6.772-.515-8.049-.199zm-89.384.987c0 .478.226.664.806.664 1.637 0 1.724.464 1.906 10.09.158 8.409.217 9.08.9 10.322.98 1.778 2.31 2.96 4.353 3.875 1.4.627 2.284.76 5.084.765 3.038.006 3.591-.09 5.332-.928 1.068-.513 2.398-1.476 2.956-2.139 1.934-2.297 2.139-3.408 2.359-12.787.21-9.033.24-9.18 1.81-9.193.365-.003.592-.26.592-.669 0-.627-.225-.664-4.067-.664-3.797 0-4.067.043-4.067.643 0 .481.275.669 1.094.747 1.8.17 1.946.85 1.951 9.088.006 8.35-.284 9.957-2.104 11.648-1.692 1.573-3.038 2.103-5.344 2.103-3.311 0-5.658-1.515-6.427-4.149-.26-.886-.355-4.143-.287-9.79l.102-8.464 1.186-.375c.652-.206 1.235-.617 1.295-.913.097-.475-.442-.538-4.66-.538-4.544 0-4.77.032-4.77.664zm31.522 0c0 .514.225.664 1 .664 1.726 0 2.698.652 3.088 2.07.223.808.318 4.66.253 10.168-.117 9.833-.254 10.476-2.323 10.882-.682.133-1.002.394-1.002.818 0 .579.332.622 4.746.622 4.335 0 4.744-.05 4.744-.595 0-.423-.434-.708-1.507-.99-1.333-.349-1.549-.54-1.862-1.645-.402-1.419-.498-16.367-.105-16.324.14.016 1.454 1.397 2.922 3.07 1.467 1.673 5.48 6.067 8.919 9.763 5.382 5.786 6.389 6.721 7.235 6.721h.982l.097-11.766c.069-8.354.211-11.877.489-12.15.216-.21.902-.485 1.526-.61.66-.133 1.132-.43 1.132-.712 0-.396-.845-.5-4.66-.576-4.487-.089-4.66-.067-4.66.58 0 .493.221.674.828.674.456 0 1.256.36 1.779.8l.952.8.106 7.996c.061 4.514-.024 7.995-.194 7.995-.165 0-1.2-1.008-2.3-2.24-1.098-1.233-4.229-4.63-6.956-7.551-2.726-2.921-5.706-6.157-6.619-7.192l-1.663-1.881-3.473-.027c-3.258-.026-3.474.014-3.474.636zm35.587 0c0 .506.227.664.953.664.524 0 1.248.212 1.61.47.621.445.664 1.018.764 10.206.125 11.474.022 12.117-1.984 12.431-1.01.159-1.343.365-1.343.832 0 .58.343.621 5.085.621 4.858 0 5.084-.03 5.084-.663 0-.473-.226-.664-.782-.664-.431 0-1.079-.212-1.441-.47-.623-.447-.663-1.02-.756-10.94-.095-10.162-.079-10.488.592-11.146.381-.372 1.074-.677 1.539-.677.622 0 .848-.177.848-.664 0-.634-.226-.664-5.084-.664s-5.085.03-5.085.664zm35.491 0c.11.411.462.664.926.664.412 0 1.082.347 1.49.773.414.431 2.732 5.887 5.251 12.363l4.511 11.59 1.182.1 1.182.099 3.169-8.231c1.742-4.527 3.352-8.589 3.575-9.027.383-.75.469-.636 1.487 1.992.594 1.533 2.176 5.588 3.516 9.01l2.434 6.223h1.073c.59 0 1.151-.198 1.246-.44a586020.348 586020.348 0 007.912-19.912c1.457-3.668 1.75-4.12 2.912-4.517.516-.176.939-.552.939-.836 0-.436-.618-.515-4.068-.515-3.841 0-4.067.037-4.067.664 0 .481.226.664.819.664 1.318 0 1.892.35 1.892 1.154 0 .672-6.456 17.89-6.853 18.28-.245.24-6.074-15.756-6.285-17.244-.205-1.446.424-2.19 1.849-2.19.556 0 .783-.192.783-.664 0-.635-.227-.664-5.255-.664-5.026 0-5.253.029-5.253.664 0 .378.227.664.526.664 1.058 0 2.461 1 2.821 2.014.518 1.453.121 2.927-2.926 10.896l-2.589 6.77-.557-1.294c-.306-.711-1.903-4.908-3.547-9.327-3.229-8.68-3.276-9.06-1.143-9.06.749 0 .975-.153.975-.663 0-.634-.226-.664-5.052-.664-4.885 0-5.046.022-4.875.664zm68.641.225s0 .453.057.58c.057.125.421.172.421.172.226.06.442.113.645.162 1.024.25 1.744.425 2.031 1.085.195.447.207 2 .209 10.32.003 8.776.001 9.851-.238 10.431-.297.72-.864 1.101-2.172 1.462 0 0-.579.158-.735.3-.155.141-.185.457-.185.457s-.012.294.121.435c.134.14.489.073.489.073l3.393.01 5.625.044s.23.03.349-.12c.119-.15.09-.442.09-.442s0-.314-.149-.455c-.148-.141-.723-.274-.723-.274-1.271-.307-1.922-.707-2.211-1.358-.214-.483-.237-1.787-.269-4.504v-3.984c.142.079.271.168.407.261l.001.001c.648.446 1.461 1.005 4.495 1.091 3.675.105 5.885-1.502 7.2-3.369 1.315-1.866 1.825-4.798.86-7.922-.964-3.124-3.794-5.014-7.774-5.21-2.074-.101-5.092 0-6.778.075l-.206.009-.266.012c-1.533.065-3.369.21-4.284.295h-.003c-.248.023-.273.026-.343.112-.069.088-.057.25-.057.25zm14.935 12.236c1.478-1.366 1.502-3.502 1.502-4.867-.145-2.14-1.022-6.255-5.992-6.255-1.163-.058-3.54.139-3.605 1.723-.073.28-.105 2.237-.086 5.24l.029 4.795.506.262.028.014c.273.143.63.328 1.253.447 1.976.38 4.886.007 6.365-1.359zm-31.096-12.71l.611-.23s.55-.222.727 0c.055.07.255.575.748 1.828l.011.026.111.281.205.52 2.352 5.951 2.449 6.188c.789 1.997 1.803 4.558 2.252 5.691.449 1.134 1.023 2.313 1.183 2.528.079.105.159.236.248.38.347.565.812 1.323 1.747 1.471 0 0 .731.12.84.232.108.113.133.317.133.317v.385s-.013.099-.073.182c-.06.084-.282.06-.282.06h-5.64l-4.013.03s-.14.016-.223-.051c-.083-.067-.125-.237-.125-.237v-.29s-.034-.218.125-.407c.161-.19.806-.212.806-.212 1.214-.103 1.696-1.12 1.944-1.644l.002-.003.05-.105c.264-.541.169-.894-1.026-3.787-.789-1.91-1.057-2.445-1.249-2.493-.135-.033-2.234-.046-4.665-.027l-4.42.033-.265.714c-.765 2.065-1.444 4.117-1.546 4.672-.209 1.128.082 2.384 1.772 2.602 0 0 .626.084.792.208.168.124.226.442.226.442v.292s-.031.14-.146.233c-.115.094-.413.06-.413.06h-4.22l-4.081.045s-.175-.004-.304-.07a.298.298 0 01-.149-.203v-.278s-.022-.18.205-.4c.227-.221.841-.28.841-.28 1.115-.177 1.748-1.344 2.111-2.016l.077-.14c.144-.261.794-1.787 1.444-3.391a1537.78 1537.78 0 011.623-3.987c.822-2.003 1.603-3.922 2.786-6.842.649-1.604 1.61-3.971 2.136-5.26l.956-2.345 1.327-.674zm-.348 5.698c.205.507.518 1.27.696 1.696.178.425.677 1.63 1.109 2.677.431 1.048.961 2.322 1.177 2.832.216.511.394.953.394.982 0 .03-1.624.054-3.611.054-2.279 0-3.61-.043-3.61-.117 0-.064.077-.318.17-.565.149-.392.889-2.476 2.525-7.102.253-.715.487-1.345.521-1.4.115-.191.257.021.629.943zm-191.942 1.76c1.096 1.905-1.355 2.495-2.505 2.604-1.742.167-2.103-.825-1.762-2.07.111-.446.36-.847.71-1.15.35-.302.786-.49 1.249-.539a2.46 2.46 0 011.323.25c.408.204.75.518.985.905zM39.4 33.106c-4.357-1.745-8.914-3.57-8.236-8.695 1.455 1.533 3.738 1.855 6.222 2.205 2.253.317 4.67.657 6.783 1.946 4.986 3.04 4.258 8.945 2.564 11.118.153-3.575-3.513-5.044-7.333-6.574zm1.656-12.32a17.301 17.301 0 00-.207-.186l-.132-.118.101.092c.08.073.159.145.238.211zm-19.54-5.316c-.722-.823-1.841-1.254-2.939-1.411a7.36 7.36 0 00-.078.814c-.049 2.245.76 4.711 2.322 6.425a5.867 5.867 0 001.777 1.338c.39.187 1.422.652 1.805.234a.27.27 0 00.032-.271c-.063-.18-.186-.342-.307-.503-.086-.114-.172-.228-.236-.346a9.99 9.99 0 00-.203-.353 5.466 5.466 0 01-.36-.676c-.262-.622-.399-1.284-.535-1.944l-.083-.396c-.208-1.018-.474-2.089-1.195-2.911zM36.93 33.382c-1.12 3.083.686 5.687 2.48 8.276 2.007 2.895 4.001 5.772 1.874 9.278 4.134-1.685 6.097-6.776 4.381-10.815-1.08-2.555-3.686-3.94-6.105-5.226-.938-.498-1.848-.982-2.63-1.514zm-12.12 7.363a9.407 9.407 0 00-2.102 1.178 15.466 15.466 0 014.573-.891c.283-.017.568-.03.855-.043a40.713 40.713 0 001.516-.087 9.5 9.5 0 002.474-.502 6.011 6.011 0 002.229-1.37 4.816 4.816 0 001.292-2.3 5.05 5.05 0 00-.075-2.483 5.099 5.099 0 00-1.251-2.156c.285.713.46 1.464.52 2.229a5.112 5.112 0 01-.288 2.098 4.289 4.289 0 01-1.125 1.672 5.772 5.772 0 01-1.776 1.086c-.91.362-1.938.51-3.01.664-.488.07-.986.142-1.485.236a12.31 12.31 0 00-2.347.669zm12.982 12.727l-.065.053c-.19.15-.382.303-.59.44a6.362 6.362 0 01-.827.455 4.346 4.346 0 01-1.92.43c-1.803-.034-3.076-1.358-3.822-2.854a22.05 22.05 0 01-.54-1.201c-.274-.647-.55-1.294-.921-1.892-.862-1.39-2.337-2.508-4.065-2.3-.704.086-1.365.399-1.756 1.002-1.03 1.577.449 3.785 2.334 3.473.16-.024.317-.067.467-.127.15-.063.29-.147.415-.25.264-.216.462-.499.574-.819.124-.333.152-.693.08-1.041a1.431 1.431 0 00-.606-.891c.362.167.644.467.787.836.148.38.187.792.11 1.192-.074.416-.26.805-.538 1.127-.148.165-.32.308-.508.426a3.005 3.005 0 01-1.922.415 3.548 3.548 0 01-1.711-.733 4.535 4.535 0 01-.253-.214 6.334 6.334 0 01-.922-.966 9.451 9.451 0 00-.368-.381 7.325 7.325 0 00-2.103-1.517 7.917 7.917 0 00-1.694-.518c-.293-.06-.59-.104-.886-.14a3.183 3.183 0 01-.17-.027c-.248-.043-.651-.112-.722-.047a18.53 18.53 0 012.98-2.207 14.614 14.614 0 013.496-1.476c1.27-.353 2.6-.454 3.91-.296.675.08 1.336.249 1.965.502.66.26 1.268.63 1.799 1.096.525.489.95 1.073 1.25 1.72a8.89 8.89 0 01.602 1.892c.07.35.122.734.176 1.132.247 1.813.533 3.906 2.647 4.271.135.026.27.045.407.057l.422.01c.29-.02.578-.061.862-.122a9.336 9.336 0 001.712-.577l-.032.025-.054.043zm-16.106-3.337a10.79 10.79 0 00.111.123l-.111-.123z" fill="#fff"/></svg>