<svg width="22" height="16" viewBox="0 0 22 16" fill="none" xmlns="http://www.w3.org/2000/svg"><path d="M21.78 3.339s-.214-1.517-.876-2.183C20.066.279 19.13.275 18.7.223 15.623 0 11.004 0 11.004 0h-.008S6.376 0 3.3.223c-.43.052-1.366.056-2.204.933-.662.666-.873 2.183-.873 2.183S0 5.122 0 6.9v1.667c0 1.779.22 3.562.22 3.562s.214 1.517.871 2.183c.838.877 1.938.846 2.428.94 1.762.168 7.481.22 7.481.22s4.623-.009 7.7-.228c.43-.051 1.366-.055 2.204-.932.662-.666.877-2.183.877-2.183S22 10.351 22 8.568V6.901c0-1.78-.22-3.562-.22-3.562zM8.728 10.592V4.409l5.942 3.102-5.942 3.08z" fill="#fff"/></svg>