<svg width="212" height="48" viewBox="0 0 212 48" fill="none" xmlns="http://www.w3.org/2000/svg"><path fill-rule="evenodd" clip-rule="evenodd" d="M10.285 0C4.605 0 0 4.605 0 10.285V36.73c0 5.68 4.605 10.284 10.285 10.284H36.73c5.68 0 10.284-4.605 10.284-10.285V10.285C47.015 4.605 42.41 0 36.73 0H10.285zm19.467 19.1h-6.244l2.938-4.408H16.161l-3.78-3.78a.367.367 0 01.26-.627h21.508a.955.955 0 01.78 1.507L29.752 19.1zm-12.488 8.815h6.244l-2.939 4.408h10.285l3.78 3.78a.367.367 0 01-.26.627H12.867a.955.955 0 01-.78-1.506l5.178-7.309zm167.859-5.144c0 6.898-5.756 12.489-12.855 12.489-7.1 0-12.856-5.591-12.856-12.488 0-6.898 5.756-12.489 12.856-12.489 7.099 0 12.855 5.591 12.855 12.489zm-5.876 0c0 4.463-3.126 8.081-6.979 8.081-3.854 0-6.979-3.618-6.979-8.08 0-4.463 3.125-8.081 6.979-8.081 3.853 0 6.979 3.618 6.979 8.08z" fill="#fff"/><path d="M74.563 10.656h17.998v.735l-11.387 19.1h10.652v4.04H73.094v-.734l11.753-19.1H74.563v-4.04zm24.242 0h15.794v4.04h-10.285v5.877h8.081v3.674h-8.081v6.244h10.652v4.04H98.805V10.656z" fill="#fff"/><path fill-rule="evenodd" clip-rule="evenodd" d="M131.496 10.656h-9.917v23.875h5.51V25.35h2.571l5.509 9.182h5.877l-6.244-10.284c3.82-.882 4.775-4.775 4.775-6.612 0-5.583-5.387-6.979-8.081-6.979zm-4.407 11.02v-6.98h3.673c1.836 0 3.673 1.323 3.673 3.674 0 2.35-2.204 3.183-3.306 3.305h-4.04z" fill="#fff"/><path d="M147.29 10.656h5.51v23.875h-5.51V10.656zm44.078 23.875V10.656h6.245l9.182 15.427V10.656h5.142v23.875h-5.51l-10.285-16.896v16.896h-4.774z" fill="#fff"/></svg>